HIERARCHY
ROOT Hips
{
	OFFSET 0.00000 0.00000 0.00000
	CHANNELS 6 Xposition Yposition Zposition Zrotation Yrotation Xrotation 
	JOINT LHipJoint
	{
		OFFSET 0 0 0
		CHANNELS 3 Zrotation Yrotation Xrotation
		JOINT LeftUpLeg
		{
			OFFSET 1.77779 -1.88989 0.48267
			CHANNELS 3 Zrotation Yrotation Xrotation
			JOINT LeftLeg
			{
				OFFSET 2.53442 -6.96327 0.00000
				CHANNELS 3 Zrotation Yrotation Xrotation
				JOINT LeftFoot
				{
					OFFSET 2.71068 -7.44755 0.00000
					CHANNELS 3 Zrotation Yrotation Xrotation
					JOINT LeftToeBase
					{
						OFFSET 0.17992 -0.49431 2.22524
						CHANNELS 3 Zrotation Yrotation Xrotation
						End Site
						{
							OFFSET 0.00000 -0.00000 1.14687
						}
					}
				}
			}
		}
	}
	JOINT RHipJoint
	{
		OFFSET 0 0 0
		CHANNELS 3 Zrotation Yrotation Xrotation
		JOINT RightUpLeg
		{
			OFFSET -1.58469 -1.88989 0.48267
			CHANNELS 3 Zrotation Yrotation Xrotation
			JOINT RightLeg
			{
				OFFSET -2.60386 -7.15404 0.00000
				CHANNELS 3 Zrotation Yrotation Xrotation
				JOINT RightFoot
				{
					OFFSET -2.73334 -7.50979 0.00000
					CHANNELS 3 Zrotation Yrotation Xrotation
					JOINT RightToeBase
					{
						OFFSET -0.25618 -0.70384 2.21822
						CHANNELS 3 Zrotation Yrotation Xrotation
						End Site
						{
							OFFSET -0.00000 -0.00000 1.16381
						}
					}
				}
			}
		}
	}
	JOINT LowerBack
	{
		OFFSET 0 0 0
		CHANNELS 3 Zrotation Yrotation Xrotation
		JOINT Spine
		{
			OFFSET 0.03410 2.01612 -0.22230
			CHANNELS 3 Zrotation Yrotation Xrotation
			JOINT Spine1
			{
				OFFSET 0.03465 2.03012 0.00937
				CHANNELS 3 Zrotation Yrotation Xrotation
				JOINT Neck
				{
					OFFSET 0 0 0
					CHANNELS 3 Zrotation Yrotation Xrotation
					JOINT Neck1
					{
						OFFSET -0.00219 1.70459 0.20857
						CHANNELS 3 Zrotation Yrotation Xrotation
						JOINT Head
						{
							OFFSET 0.02518 1.72339 -0.22179
							CHANNELS 3 Zrotation Yrotation Xrotation
							End Site
							{
								OFFSET 0.00282 1.74122 -0.09823
							}
						}
					}
				}
				JOINT LeftShoulder
				{
					OFFSET 0 0 0
					CHANNELS 3 Zrotation Yrotation Xrotation
					JOINT LeftArm
					{
						OFFSET 3.36358 1.00547 -0.37661
						CHANNELS 3 Zrotation Yrotation Xrotation
						JOINT LeftForeArm
						{
							OFFSET 5.06507 -0.00000 0.00000
							CHANNELS 3 Zrotation Yrotation Xrotation
							JOINT LeftHand
							{
								OFFSET 3.60196 -0.00000 0.00000
								CHANNELS 3 Zrotation Yrotation Xrotation
								JOINT LeftFingerBase
								{
									OFFSET 0 0 0
									CHANNELS 3 Zrotation Yrotation Xrotation
									JOINT LeftHandIndex1
									{
										OFFSET 0.45035 -0.00000 0.00000
										CHANNELS 3 Zrotation Yrotation Xrotation
										End Site
										{
											OFFSET 0.36308 -0.00000 0.00000
										}
									}
								}
								JOINT LThumb
								{
									OFFSET 0 0 0
									CHANNELS 3 Zrotation Yrotation Xrotation
									End Site
									{
										OFFSET 0.36862 -0.00000 0.36862
									}
								}
							}
						}
					}
				}
				JOINT RightShoulder
				{
					OFFSET 0 0 0
					CHANNELS 3 Zrotation Yrotation Xrotation
					JOINT RightArm
					{
						OFFSET -3.50159 0.80383 -0.71526
						CHANNELS 3 Zrotation Yrotation Xrotation
						JOINT RightForeArm
						{
							OFFSET -5.36394 -0.00000 0.00000
							CHANNELS 3 Zrotation Yrotation Xrotation
							JOINT RightHand
							{
								OFFSET -3.58035 -0.00000 0.00000
								CHANNELS 3 Zrotation Yrotation Xrotation
								JOINT RightFingerBase
								{
									OFFSET 0 0 0
									CHANNELS 3 Zrotation Yrotation Xrotation
									JOINT RightHandIndex1
									{
										OFFSET -0.66375 -0.00000 0.00000
										CHANNELS 3 Zrotation Yrotation Xrotation
										End Site
										{
											OFFSET -0.53513 -0.00000 0.00000
										}
									}
								}
								JOINT RThumb
								{
									OFFSET 0 0 0
									CHANNELS 3 Zrotation Yrotation Xrotation
									End Site
									{
										OFFSET -0.54330 -0.00000 0.54330
									}
								}
							}
						}
					}
				}
			}
		}
	}
}
MOTION
Frames: 6
Frame Time: .0083333
0.4523 17.3594 8.2740 -0.1607 -8.3378 0.6635 0.0000 0.0000 0.0000 -18.4819 2.8531 -6.4131 16.1309 19.6372 78.6213 0.3078 -8.8993 17.2398 0.0303 -1.1244 -3.0911 0.0000 0.0000 0.0000 28.7090 14.8709 -24.0186 -6.7127 -15.0851 47.7792 -0.6605 -1.1230 -15.7997 -0.5902 -4.9185 13.6763 -0.6079 0.5093 16.6327 1.9473 0.7310 0.5051 2.2727 0.4195 -8.8419 -2.1309 -2.7752 -19.4314 1.7940 -3.4440 10.5593 0.5433 -1.5949 6.4335 0.0000 -0.0000 0.0000 -86.2056 10.8483 44.9091 113.4214 -57.8222 -80.1352 -0.0000 0.0000 -26.1645 29.0701 3.1382 1.7432 -7.1250 0.0000 -0.0000 2.0138 33.5643 -0.5649 0.0000 -0.0000 0.0000 87.5002 -15.5391 46.0266 -110.4750 58.3551 -77.6339 0.0000 -0.0000 -9.2653 -25.8945 34.7272 -15.4587 7.1250 -0.0000 -0.0000 3.8073 7.5601 4.2840
0.4332 17.2571 8.6707 -2.1481 -8.3121 1.2247 0.0000 0.0000 0.0000 -15.0529 2.6473 -9.8981 17.4424 19.8424 82.5033 0.1720 -8.5161 14.9991 0.0323 -1.1607 -3.1911 0.0000 0.0000 0.0000 31.4585 15.0111 -23.0350 -6.9420 -15.2829 48.6548 -0.7576 -2.6454 -17.6066 -0.2706 -3.3462 9.2441 1.1168 0.5398 17.0362 2.5624 1.1723 0.3142 1.8513 0.5726 -9.2782 -2.0292 -2.8002 -19.5072 1.6317 -3.4775 10.5396 0.4702 -1.6207 6.4350 0.0000 0.0000 0.0000 -86.3928 11.6021 44.9445 111.5358 -58.1729 -78.5361 -0.0000 0.0000 -26.2308 28.9323 2.9694 1.6402 -7.1250 0.0000 -0.0000 1.9008 33.3673 -0.5423 0.0000 0.0000 0.0000 87.5544 -14.1027 46.2928 -109.5354 58.5077 -76.8334 0.0000 -0.0000 -9.8386 -25.7665 34.7185 -15.3719 7.1250 -0.0000 -0.0000 3.8750 7.5187 4.3581
0.4190 17.1723 9.0663 -3.6814 -7.9915 1.7351 0.0000 0.0000 0.0000 -12.2223 2.1835 -13.3305 18.6065 19.9534 85.9226 0.1006 -7.7843 13.0079 0.0093 -0.6243 -1.7155 0.0000 0.0000 0.0000 33.5377 14.8314 -22.2130 -7.1039 -15.4188 49.2663 -0.8748 -4.1439 -19.6366 -0.0540 -1.4993 4.1237 2.4675 0.4836 17.2871 3.0484 1.4216 0.2757 1.5497 0.6414 -9.4512 -1.8222 -2.8079 -19.9148 1.4386 -3.5028 10.3969 0.3682 -1.6393 6.4473 0.0000 0.0000 0.0000 -86.6474 12.2570 44.7205 109.9250 -58.4455 -77.1655 -0.0000 0.0000 -26.4611 30.1449 3.2695 1.8970 -7.1250 0.0000 -0.0000 2.8953 33.7488 -0.7998 0.0000 0.0000 0.0000 87.5345 -12.4134 46.6525 -108.8932 58.6073 -76.2855 0.0000 -0.0000 -10.1893 -25.5295 35.0749 -15.3472 7.1250 -0.0000 -0.0000 4.0716 7.8225 4.5988
0.4150 17.1293 9.5486 -3.2858 -6.9332 1.4423 0.0000 0.0000 0.0000 -12.2755 1.0102 -14.9334 19.3379 19.9895 88.0639 0.0744 -6.3769 10.8133 0.0003 0.1032 0.2835 0.0000 0.0000 0.0000 33.3133 13.2867 -20.7272 -7.2317 -15.5239 49.7453 -1.1875 -4.0440 -22.4069 -0.0768 -1.7882 4.9208 2.5078 0.2520 17.0516 2.8941 1.0879 0.5070 1.4397 0.4793 -9.0558 -1.6325 -2.8367 -20.1235 1.3543 -3.5732 10.2213 0.3016 -1.6723 6.4198 -0.0000 -0.0000 0.0000 -86.7605 13.0577 44.5599 108.9009 -58.6062 -76.2921 -0.0000 0.0000 -26.1464 30.4978 5.1265 3.0127 -7.1250 0.0000 -0.0000 3.2017 35.9086 -0.7163 -0.0000 -0.0000 0.0000 87.5082 -10.9866 47.0838 -108.6345 58.6464 -76.0646 0.0000 -0.0000 -9.8763 -26.0311 35.1877 -15.7191 7.1250 -0.0000 -0.0000 3.8229 8.0659 4.3305
0.3981 17.0680 9.9678 -3.1488 -6.5150 1.5174 0.0000 0.0000 0.0000 -11.7816 0.3245 -17.8050 20.0833 19.9998 90.2437 0.0471 -5.5276 9.1647 0.0460 1.3840 3.8060 0.0000 0.0000 0.0000 33.4016 12.7635 -19.5431 -7.3440 -15.6149 50.1638 -1.3598 -4.3422 -23.9732 -0.0578 -1.5509 4.2660 2.3501 0.3510 17.2128 2.8760 1.1957 0.4669 1.4834 0.5367 -9.1940 -1.7846 -3.0111 -20.0295 1.5435 -3.7909 9.8659 0.3663 -1.7690 6.2996 0.0000 0.0000 0.0000 -86.8610 14.0605 44.4872 108.2979 -58.6963 -75.7771 -0.0000 0.0000 -25.9238 30.7266 6.4532 3.8219 -7.1250 0.0000 -0.0000 3.3942 37.4564 -0.6310 0.0000 0.0000 0.0000 87.3910 -9.6263 47.4473 -108.4521 58.6736 -75.9088 0.0000 -0.0000 -9.6923 -26.2648 34.8621 -15.7520 7.1250 -0.0000 -0.0000 3.6329 7.7934 4.0997
0.3667 17.0456 10.4096 -3.0000 -7.5771 1.6298 0.0000 0.0000 0.0000 -11.3313 1.2855 -20.5404 20.5706 19.9922 91.6685 0.0223 -5.0287 7.8712 0.0003 -0.1100 -0.3022 0.0000 0.0000 0.0000 33.4969 13.1531 -17.8135 -7.4028 -15.6619 50.3817 -1.4654 -4.5287 -24.8892 -0.0106 -0.6644 1.8259 1.7384 1.0050 17.1178 2.8551 1.9318 0.5353 1.6263 0.9155 -9.0917 -1.9498 -3.1374 -19.8963 1.7933 -3.9479 9.4266 0.4606 -1.8328 6.1477 -0.0000 -0.0000 0.0000 -86.9628 15.1564 44.5292 107.6662 -58.7873 -75.2371 -0.0000 0.0000 -25.2295 30.2847 5.5736 3.2463 -7.1250 0.0000 -0.0000 3.0219 36.4131 -0.6388 -0.0000 -0.0000 0.0000 87.3184 -8.3192 47.7718 -108.6092 58.6502 -76.0430 0.0000 -0.0000 -9.1762 -25.9206 34.2108 -15.2835 7.1250 -0.0000 -0.0000 3.6947 7.0378 4.1276
